<svg xmlns="http://www.w3.org/2000/svg" viewBox="0 0 169.37 96.27"><defs><style>.cls-1{fill:#fff;}.cls-2{fill:#2db0ea;}.cls-3{fill:#f7941d;}.cls-4{fill:#ef4136;}</style></defs><title>Asset 1</title><g id="Layer_2" data-name="Layer 2"><g id="Layer_2-2" data-name="Layer 2"><path class="cls-1" d="M95.3,30.45a8.85,8.85,0,0,0,4.06-3.24,16.62,16.62,0,0,0,2.1-5.57q1.11-5.18-1.39-7.2t-8.24-2H84a2.18,2.18,0,0,0-2.13,1.72L75.07,45.74a1.34,1.34,0,0,0,1.31,1.63h5a1.34,1.34,0,0,0,1.31-1.06L85.8,31.7H88l.43,14.36a1.34,1.34,0,0,0,1.34,1.3H95a1.34,1.34,0,0,0,1.34-1.44Zm-1.15-8.11A7.46,7.46,0,0,1,92.44,26a4.69,4.69,0,0,1-3.52,1.23H86.76l2.08-9.66h2.5q2.11,0,2.72,1.19A5.52,5.52,0,0,1,94.16,22.34Z"/><path class="cls-1" d="M104.3,46.61l.29.16L110.13,42a1.43,1.43,0,0,1-.6-.93,8.32,8.32,0,0,1,.18-3.37l5.12-23.81a1.22,1.22,0,0,0-1.19-1.47h-5.15a1.22,1.22,0,0,0-1.19,1l-5,23.15a17.75,17.75,0,0,0-.43,6.32A5.18,5.18,0,0,0,104.3,46.61Z"/><path class="cls-1" d="M126.71,12.42h-5.19a1.22,1.22,0,0,0-1.19,1L115.11,37.7l9.43-8.13,3.37-15.67A1.22,1.22,0,0,0,126.71,12.42Z"/><path class="cls-1" d="M131.95,47.23l3.8-17.66,3.18,17.64a.58.58,0,0,0,.57.48h4.26a.58.58,0,0,0,.57-.46l7.09-33a1.22,1.22,0,0,0-1.19-1.47h-3.89a1.22,1.22,0,0,0-1.19,1l-3.41,15.86L139.3,18.08l-9.49,8.3L125.4,47a.58.58,0,0,0,.57.71h5.41A.58.58,0,0,0,131.95,47.23Z"/><path class="cls-1" d="M64.75,89.82h4.62a1.23,1.23,0,0,0,1.15-.8L73,82.44h5.13l-.35,6.08A1.23,1.23,0,0,0,79,89.82h4.62a1.23,1.23,0,0,0,1.23-1.2l.87-30.56L70.41,71.3l-6.8,16.83A1.23,1.23,0,0,0,64.75,89.82ZM79.48,64.2,78.4,77.83H74.69Z"/><path class="cls-1" d="M104.68,88.66A9.41,9.41,0,0,0,109,85.08a19.31,19.31,0,0,0,2.45-6.47l2.73-12.68a15.47,15.47,0,0,0,.32-6.41A5,5,0,0,0,111.68,56a16.2,16.2,0,0,0-6.83-1.12H97.58a2,2,0,0,0-1.91,1.54L88.82,88.28a1.28,1.28,0,0,0,1.25,1.54h7.35A19,19,0,0,0,104.68,88.66Zm-2.12-28.39h1.16a4.85,4.85,0,0,1,2.39.43,1.54,1.54,0,0,1,.75,1.32,10.6,10.6,0,0,1-.31,2.57l-3.27,15.23a14.62,14.62,0,0,1-.8,2.74A3,3,0,0,1,101.16,84a5.47,5.47,0,0,1-2.59.5H97.36Z"/><path class="cls-1" d="M123.35,77.54l4.78-13.63L127,77.47l7-5.81.47-16.34a.72.72,0,0,0-.72-.74h-7.58a.72.72,0,0,0-.67.45L111.66,89.29h.92L127,77.47Z"/><path class="cls-2" d="M153.5,54.65h-7.43a1.07,1.07,0,0,0-1,.83l-1.76,7.76,10.19-8.55Z"/><path class="cls-1" d="M122.16,84.25h5.13l-.26,5.2c0,.61.71.6,1.14.6h5.24a.63.63,0,0,0,.72-.68V74.29L114.87,89.83l4.68,0a1,1,0,0,0,1-.69Z"/><path class="cls-1" d="M142.09,89.82a.8.8,0,0,0,.78-.62l5.41-22.81-.72,23.43h4.33a.8.8,0,0,0,.75-.51l8.85-22.74-4.17,22.31a.8.8,0,0,0,.79.95H162a.8.8,0,0,0,.79-.65l6.61-33.46a.7.7,0,0,0-.69-.84H162a.7.7,0,0,0-.65.43L153,75.2l.33-18.07-10.5,8.72-5.58,23.5a.5.5,0,0,0,.05.35c.08.1.37.13.37.13Z"/><path class="cls-3" d="M71.41,67c.85-.59,14.24-12.17,14.24-12.17l0,0H76.63a2.2,2.2,0,0,0-2.1,1.56Z"/><path class="cls-4" d="M107,47.59,124,33l-3,10.4s-1.18,4.78-7.68,4.55C108.29,47.75,107,47.59,107,47.59Z"/><path class="cls-2" d="M16.54,58.4,53.1,33.75c3.74-2,4.58-6.1,1.66-8.12L28.31,1C24.78-1.46,18.61.92,17.77,5L7.65,54.34C6.81,58.46,12,60.84,16.54,58.4Z"/><path class="cls-3" d="M48,49,26.14,63.74c-2.23,1.2-2.73,3.65-1,4.85L40.94,83.3c2.11,1.46,5.79,0,6.3-2.42l6-29.44C53.78,49,50.68,47.56,48,49Z"/><path class="cls-4" d="M4.1,95.82,20.8,84.56c1.71-.92,2.09-2.79.76-3.71L9.48,69.6a3.35,3.35,0,0,0-4.82,1.85L0,94C-.34,95.85,2,96.94,4.1,95.82Z"/><path class="cls-1" d="M138.5,13.55l0,0a1.25,1.25,0,0,0-1.21-1h-4.13a1.22,1.22,0,0,0-1.18,1l-1.64,9,8.54-7.31Z"/></g></g></svg>